<svg version="1.1" xmlns="http://www.w3.org/2000/svg" xmlns:xlink="http://www.w3.org/1999/xlink">
    <symbol id="arrow" viewBox="0 0 16 16">
        <path fill-rule="evenodd" d="M1.553 6.776a.5.5 0 0 1 .67-.223L8 9.44l5.776-2.888a.5.5 0 1 1 .448.894l-6 3a.5.5 0 0 1-.448 0l-6-3a.5.5 0 0 1-.223-.67" fill="currentColor"/>
    </symbol>
    <symbol id="check-circle" viewBox="0 0 16 16">
        <path d="M16 8A8 8 0 1 1 0 8a8 8 0 0 1 16 0m-3.97-3.03a.75.75 0 0 0-1.08.022L7.477 9.417 5.384 7.323a.75.75 0 0 0-1.06 1.06L6.97 11.03a.75.75 0 0 0 1.079-.02l3.992-4.99a.75.75 0 0 0-.01-1.05z" fill="currentColor"/>
    </symbol>
</svg>